<svg xmlns="http://www.w3.org/2000/svg" viewBox="0 0 670.8 297"><defs><style>.cls-1{fill:#005d80;}.cls-2{fill:#00758e;}.cls-3{fill:#b81f54;}.cls-4{fill:#713a63;}.cls-5{fill:#023f64;}.cls-6{fill:#005d73;}.cls-7{fill:#921041;}.cls-8{fill:#da1451;}.cls-9{font-size:112px;font-family:OswaldHeavy-Regular, Oswald Heavy;}.cls-10{font-size:60px;}</style></defs><g id="레이어_2" data-name="레이어 2"><g id="레이어_1-2" data-name="레이어 1"><polygon class="cls-1" points="16.47 140 0 132.57 0 110.81 16.47 118.24 16.47 140"/><polygon class="cls-2" points="16.47 114.86 0 107.42 0 85.67 16.47 93.1 16.47 114.86"/><polygon class="cls-3" points="81.11 31.05 60.27 21.76 60.27 0 81.11 9.29 81.11 31.05"/><polygon class="cls-4" points="16.47 89.71 0 82.28 0 52.76 16.47 60.19 16.47 89.71"/><polyline class="cls-5" points="16.47 140 32.93 132.57 32.93 110.81 16.47 118.24"/><polyline class="cls-6" points="16.47 114.86 81.11 85.69 81.11 63.93 16.47 93.1"/><polyline class="cls-7" points="0 48.98 60.27 21.76 60.27 0 0 27.23"/><polyline class="cls-8" points="0 27.23 81.11 63.93 81.11 85.69 0 48.98"/><text class="cls-9" transform="translate(150.35 127.36)">InPoStack <tspan class="cls-10"><tspan x="144.53" y="72">(Admin)</tspan></tspan></text></g></g></svg>